<svg xmlns="http://www.w3.org/2000/svg" viewBox="0 0 748.57 122.8"><title>자산 1</title><g id="레이어_2" data-name="레이어 2"><g id="레이어_1-2" data-name="레이어 1"><path d="M72.7,0V48.8H23.9V0H0V121.5H96.6V0Zm0,96.6H24.9V71.71H72.7Z"/><polygon points="120.51 0 144.41 0 144.41 47.8 168.31 47.8 168.31 70.71 144.41 70.71 144.41 121.5 120.51 121.5 120.51 0"/><path d="M434.72,23.4V.5H313.22V23.4h24.89V97.1H313.22V122h121.5V97.1h-24.9V23.4ZM386.91,97.1H361V24.4h25.89Z"/><path d="M264.91,0V48.8h-48.8V0h-23.9V121.5h96.61V0Zm0,96.6h-47.8V71.71h47.8Z"/><path d="M555.72.25v121.5h96.61V.25Zm72.7,97.6h-48.8V24.15h48.8Z"/><polygon points="459.12 0.25 459.12 121.75 483.02 121.75 483.02 71.95 506.92 71.95 506.92 121.75 530.82 121.75 530.82 0.25 506.92 0.25 506.92 48.05 483.02 48.05 483.02 0.25 459.12 0.25"/><circle cx="696.57" cy="20.8" r="20"/><rect x="692.57" y="33.8" width="8" height="88"/><rect x="724.57" y="0.8" width="8" height="122"/><rect x="740.57" y="0.8" width="8" height="122"/></g></g></svg>